inDegrees=no
num_controls=7
num_derivatives=13
num_iterations=156
num_multipliers=7
num_parameters=0
num_slacks=7
num_states=26
objective=5.673494
objective_accelerations=0.602677
objective_balance=0.015033
objective_effort=0.456501
objective_height=4.483411
objective_ligament=0.115872
solver_duration=1338.382989
status=Solve_Succeeded
success=true
DataType=double
version=3
OpenSimVersion=4.4-2022-07-23-0e9fedc
endheader
time	/jointset/ground_pelvis/pelvis_tilt/value	/jointset/ground_pelvis/pelvis_tx/value	/jointset/ground_pelvis/pelvis_ty/value	/jointset/hip_r/hip_flexion_r/value	/jointset/hip_r/hip_adduction_r/value	/jointset/hip_r/hip_rotation_r/value	/jointset/back/lumbar_extension/value	/jointset/patellofemoral_r/patellar_flexion_r/value	/jointset/knee_r/knee_flexion_r/value	/jointset/knee_r/knee_adduction_r/value	/jointset/knee_r/knee_rotation_r/value	/jointset/ankle_r/ankle_angle_r/value	/jointset/subtalar_r/subtalar_angle_r/value	/jointset/ground_pelvis/pelvis_tilt/speed	/jointset/ground_pelvis/pelvis_tx/speed	/jointset/ground_pelvis/pelvis_ty/speed	/jointset/hip_r/hip_flexion_r/speed	/jointset/hip_r/hip_adduction_r/speed	/jointset/hip_r/hip_rotation_r/speed	/jointset/back/lumbar_extension/speed	/jointset/patellofemoral_r/patellar_flexion_r/speed	/jointset/knee_r/knee_flexion_r/speed	/jointset/knee_r/knee_adduction_r/speed	/jointset/knee_r/knee_rotation_r/speed	/jointset/ankle_r/ankle_angle_r/speed	/jointset/subtalar_r/subtalar_angle_r/speed	/forceset/tau_hip_flexion_r	/forceset/tau_hip_adduction_r	/forceset/tau_hip_rotation_r	/forceset/tau_knee_flexion_r	/forceset/tau_ankle_angle_r	/forceset/tau_subtalar_angle_r	/forceset/tau_lumbar_extension	lambda_cid13_p0	lambda_cid14_p0	lambda_cid14_p1	lambda_cid14_p2	lambda_cid14_p3	lambda_cid14_p4	lambda_cid14_p5	/jointset/ground_pelvis/pelvis_tilt/accel	/jointset/ground_pelvis/pelvis_tx/accel	/jointset/ground_pelvis/pelvis_ty/accel	/jointset/hip_r/hip_flexion_r/accel	/jointset/hip_r/hip_adduction_r/accel	/jointset/hip_r/hip_rotation_r/accel	/jointset/back/lumbar_extension/accel	/jointset/patellofemoral_r/patellar_flexion_r/accel	/jointset/knee_r/knee_flexion_r/accel	/jointset/knee_r/knee_adduction_r/accel	/jointset/knee_r/knee_rotation_r/accel	/jointset/ankle_r/ankle_angle_r/accel	/jointset/subtalar_r/subtalar_angle_r/accel	gamma_cid13_p0	gamma_cid14_p0	gamma_cid14_p1	gamma_cid14_p2	gamma_cid14_p3	gamma_cid14_p4	gamma_cid14_p5
0	0.002520810037530878	0.1265959392694553	0.9346850130724049	0.1934208783645156	-0.2116786240412437	-0.2410090380295403	-0.2903791543005566	0.231179331402168	0.2311793314021609	0.09673799164416852	0.1627368265603635	0.08934340440958972	0.08434616497160269	0	0	0	0	0	0	0	0	0	0	0	0	0	0.1144440657577359	-0.06107190987758385	-0.0001238384918075116	-0.2510833464652741	0.1329076198419118	-0.05606683055841905	-0.03223401146015412	-29.51638214537608	-2.075258076099751	-20.93295589406079	-0.5587141175032372	-1.333431147613781	-609.3219919887797	60.32939415344422	-1.88624311521171	-1.790399528863688	-0.8728325012307849	9.911902134777259	0.06997862726764414	1.782238234479322	-6.265339078457621	10.19819174574717	10.19819174574706	-2.875556791442865	0.5687317500296192	2.870047241265842	0.9473742581605402	3.236493263297236e-08	1.783581049307983e-08	-2.498563873124299e-07	1.98962781427224e-07	9.993882624584076e-09	1.278383419079071e-07	-2.324934200314698e-07
0.01	0.002432679729650138	0.1265077172338526	0.9346425876031255	0.1939030675824641	-0.2116737505476519	-0.2409199144465909	-0.2906942180767647	0.2316794546846152	0.2316794546845213	0.09659402831163259	0.1627621230697097	0.08948455219819876	0.08439451462782334	-0.01755427853000771	-0.01753898399987232	-0.008461731828953264	0.0959836798095646	0.0009510618490607025	0.01775464420432697	-0.06261860351118075	0.09958584200709185	0.09958584200709149	-0.02861929163894979	0.005023774208798321	0.02813295226582477	0.009613388564454687	0.1108339964713226	-0.06678984623672876	9.138186359651889e-05	-0.2483025138050521	0.1283873754782731	-0.04977230338237838	-0.02885031968882824	-29.52255320875167	-3.207926721273657	-18.24525061206809	-1.161187603631344	-1.539466858256532	-610.8239121571494	65.6945004854034	-1.679254745262485	-1.719832368907073	-0.8293136520001136	9.373476184760799	0.1041215774455169	1.761607413959231	-6.200998227461959	9.772951784472109	9.772951784472138	-2.829130373190786	0.4639103989906421	2.770433557102268	0.9598240501555604	4.106246466506006e-08	4.820501411660149e-09	-3.037081717594098e-07	2.087838099979798e-07	2.734747683709149e-08	7.651931625391513e-09	-2.595067185887807e-07
0.02	0.002171159731793908	0.1262472684515787	0.9345162507899019	0.1953314686546041	-0.2116600761128419	-0.2406553384415236	-0.2916236433361047	0.2331622706582809	0.2331622706582691	0.09616906905843746	0.162836599349792	0.08990413237701797	0.08453729874860236	-0.03467793799474277	-0.03444534933422812	-0.01678226878884614	0.1892423708476643	0.001760188246788603	0.03509048443063702	-0.1228722966228933	0.1965385382654598	0.1965385382654612	-0.05619918420073952	0.009835954125021092	0.05568647804611154	0.0188868929116333	0.1072239271846064	-0.07250778259547373	0.0003066022196034565	-0.2455216811449551	0.123867131114738	-0.04347777620582215	-0.02546662791787577	-29.54057836106083	-4.261128937856667	-15.55833884453872	-1.746734477716491	-1.731220834377716	-611.0659522884642	70.80772443906994	-1.800119302157097	-1.663875795760469	-0.8445935274187009	9.366904380484264	0.04159153700109158	1.698477438875934	-5.792356998563925	9.671562596002383	9.671562596002715	-2.66767697601084	0.5264128915145159	2.75416194415814	0.8793974147052958	4.975999669714775e-08	-8.194807669759532e-09	-3.575599562063897e-07	2.186048385687355e-07	4.470107104959891e-08	-1.125344786571241e-07	-2.865200171460916e-07
0.03	0.001740156389401805	0.125820810641453	0.934307135755172	0.1976793357803264	-0.2116391426257835	-0.2402200797961498	-0.2931431594379937	0.2356013263246405	0.2356013263246522	0.09547383957448634	0.1629584952747904	0.0905960122743418	0.08477090119874554	-0.05145155995087384	-0.0507508866660978	-0.02503792365518553	0.2798809440996828	0.002413646313701479	0.05186916480202752	-0.1806175571186395	0.290806271062663	0.2908062710626643	-0.08268274384949979	0.01449287808476033	0.08256421990491822	0.02778466920701457	0.1023190874912562	-0.06822375381989089	0.0004924609000717915	-0.2413929151231424	0.119320045317119	-0.04401911211670956	-0.02125741263759876	-29.56968239730864	-5.755748874131621	-16.00854287978306	-1.728182811796873	-1.364252345047399	-611.4920655461879	69.00445985681698	-1.605304479428736	-1.599584788124942	-0.8156522834340393	8.844818322676256	0.07528529772186596	1.653798280050048	-5.703605579624851	9.234420042144711	9.234420042144393	-2.614134570161037	0.4278235209245472	2.635794196670147	0.8875987550098944	4.982438449082097e-08	-2.059093390521382e-08	-3.486377922066738e-07	1.704744047533819e-07	5.467840576402995e-08	-2.27097776659297e-07	-2.448200629689325e-07
0.04	0.001143552660035987	0.1252341590407632	0.9340155440083409	0.2009200855436249	-0.2116120620867974	-0.2396197873582993	-0.2952277271457391	0.2389690676031338	0.2389690676031234	0.09451868667177298	0.1631254587138553	0.09155291236824532	0.08509200761545377	-0.06779801539049947	-0.06648410744702594	-0.03327761120911664	0.3678188983563266	0.002989598628081791	0.06809724292459576	-0.2358826177961666	0.3822756606824839	0.3822756606824836	-0.108183867932337	0.01884945695335188	0.10869051736085	0.0363876862246006	0.09741424779813433	-0.06393972504446939	0.000678319580141495	-0.2372641491012102	0.1147729595194849	-0.0445604480277943	-0.01704819735709944	-29.60861180563864	-7.177841478644325	-16.46067923558644	-1.69261025447816	-0.9942315938447847	-610.770030689985	66.97555707996652	-1.714685998855906	-1.54941248557226	-0.841400064937037	8.826780581409313	0.02609038649458388	1.588356989111474	-5.296317034920027	9.111893960525926	9.111893960525974	-2.471189862826231	0.4663438732850084	2.603873063583035	0.820445559146219	4.971076931050626e-08	-3.297429348405027e-08	-3.384213199915621e-07	1.211490954249125e-07	6.450365265375839e-08	-3.415451342020813e-07	-2.017033406941555e-07
0.05	0.0003852028446599777	0.1244930134795511	0.9336413655238576	0.2050273697566979	-0.2115799712998614	-0.2388601608923668	-0.2978523802152114	0.243237934372111	0.2432379343720711	0.09331415462291874	0.1633347871597249	0.09276730721148251	0.08549724451083712	-0.08379743873081212	-0.08165075879280474	-0.04157364578739697	0.4531980283469054	0.003420795214564613	0.08372291811076987	-0.2886665778068446	0.4710461727258473	0.4710461727258481	-0.1325690203201272	0.02296039595342899	0.1340672965208753	0.0446207129985807	0.09228103537149011	-0.06227839886693472	0.0009133213642927531	-0.2336961163997821	0.1099909044029507	-0.04276743855481945	-0.01276727507284443	-29.6559668319369	-8.543139389163231	-15.8608330385512	-1.85700055536797	-0.7242454603365202	-610.1985713067702	67.16270576489791	-1.531385864902663	-1.486141578866554	-0.8261084030866797	8.327493653115614	0.05045153506124323	1.533933072005668	-5.212222740213861	8.691891827546897	8.691891827546989	-2.399189368824214	0.3751199477556801	2.486412957005973	0.8188462653139285	4.562201852558834e-08	-4.383665180499877e-08	-3.102859194065096e-07	2.023375943976135e-08	7.056541211638407e-08	-4.405649477183201e-07	-1.126015890137396e-07
0.06	-0.0005309042767728619	0.1236030313809237	0.933183746043829	0.2099752481587147	-0.2115438050989874	-0.2379474256168473	-0.3009934303360076	0.2483809586617422	0.2483809586617299	0.09187036876177193	0.163583555202527	0.0942318363692769	0.08598363467971849	-0.09934947660247175	-0.09625141493010658	-0.04996581031818548	0.5359377361468107	0.003804681414478404	0.09871900484234608	-0.3391620280603964	0.5571071648214239	0.5571071648214256	-0.1560346303906712	0.02673737632897417	0.1587173802726465	0.05261834092416171	0.08714782294475344	-0.06061707268936933	0.001148323148697231	-0.2301280836983988	0.1052088492864162	-0.04097442908181041	-0.008486352788670656	-29.709985714818	-9.842705128111325	-15.2607538765249	-2.00854749120741	-0.4658945460896079	-608.6024994873316	67.16885758583467	-1.625208905125207	-1.436213443876981	-0.8606260554386659	8.298896143274657	0.01662830918079362	1.462439298191865	-4.838615083494746	8.569989970968573	8.569989970968575	-2.287281399376992	0.3995521483786507	2.458533981932066	0.7733657894663731	4.136589360995028e-08	-5.46349679677204e-08	-2.813960376269333e-07	-8.285378819409211e-08	7.646870895050016e-08	-5.38935180433441e-07	-2.156362556887578e-08
0.07000000000000001	-0.001600796640160352	0.1225699075203502	0.9326415022373536	0.2157379279290134	-0.2115044848133723	-0.2368877823700717	-0.3046275321582615	0.2543713603031277	0.2543713603030502	0.09019748243185641	0.1638685354104215	0.09593920893077629	0.08654827554669163	-0.1145578765332104	-0.1102741696702739	-0.0585118374628063	0.6161585776468105	0.004053761569123555	0.1130898075579235	-0.3872807758662052	0.6405198928353321	0.6405198928353351	-0.1783905822986295	0.03020267010412609	0.182637634907491	0.06027589745776805	0.08178159494964371	-0.05829692153879226	0.001391000072715332	-0.2272224855964867	0.1011936360374167	-0.03963108094736189	-0.004057056426946096	-29.76881224368005	-10.94409705385481	-14.84454803798225	-2.104184181882834	-0.3652745375744614	-607.3401148655914	66.80389834374411	-1.457975882503257	-1.37041299697889	-0.8560329962445625	7.817734063131087	0.02816221536389083	1.406420628201337	-4.741870550360828	8.158915403008733	8.158915403008805	-2.186994293681487	0.3116082000087288	2.340853598080576	0.7568068677522799	3.348617801875744e-08	-6.613739088391143e-08	-2.440923256246631e-07	-2.552685226748419e-07	8.123260541035286e-08	-6.331700419528157e-07	1.227289395780895e-07
